<svg width="16" height="16" viewBox="0 0 16 16" fill="none" xmlns="http://www.w3.org/2000/svg">
<path fill-rule="evenodd" clip-rule="evenodd" d="M3.41136 0.642662C6.41045 -0.21422 9.58955 -0.214221 12.5886 0.642662C13.9279 1.0253 14.9747 2.07213 15.3573 3.41136C16.2142 6.41044 16.2142 9.58955 15.3573 12.5886C14.9747 13.9279 13.9279 14.9747 12.5886 15.3573C9.58955 16.2142 6.41045 16.2142 3.41136 15.3573C2.07213 14.9747 1.0253 13.9279 0.642661 12.5886C-0.214219 9.58955 -0.214221 6.41044 0.642661 3.41136C1.0253 2.07213 2.07214 1.0253 3.41136 0.642662Z" fill="#441803"/>
<path fill-rule="evenodd" clip-rule="evenodd" d="M3.41136 0.642662C6.41045 -0.21422 9.58955 -0.214221 12.5886 0.642662C13.9279 1.0253 14.9747 2.07213 15.3573 3.41136C16.2142 6.41044 16.2142 9.58955 15.3573 12.5886C14.9747 13.9279 13.9279 14.9747 12.5886 15.3573C9.58955 16.2142 6.41045 16.2142 3.41136 15.3573C2.07213 14.9747 1.0253 13.9279 0.642661 12.5886C-0.214219 9.58955 -0.214221 6.41044 0.642661 3.41136C1.0253 2.07213 2.07214 1.0253 3.41136 0.642662ZM8.92582 10.7794L13.0195 5.04829L11.6143 4.04463L7.52069 9.77575C7.45593 9.86641 7.36997 9.93986 7.27032 9.98969L7.18218 10.0338C6.60998 10.3199 5.93647 10.3199 5.36427 10.0338C5.25114 9.97719 5.15941 9.88546 5.10285 9.77233L4.45531 8.47726L2.91085 9.24949L3.55838 10.5446C3.78203 10.9919 4.14473 11.3546 4.59204 11.5782C5.65037 12.1074 6.89608 12.1074 7.95442 11.5782L8.04255 11.5342C8.39412 11.3584 8.69735 11.0993 8.92582 10.7794Z" fill="#FCC802"/>
</svg>
