<svg width="32" height="32" viewBox="0 0 32 32" fill="none" xmlns="http://www.w3.org/2000/svg">
<path d="M25.846 28.356H25.37C24.818 28.356 24.37 27.908 24.37 27.356C24.37 26.804 24.818 26.356 25.37 26.356H25.846C27.588 26.356 28.999 24.944 28.999 23.203V9.07396C28.999 8.23796 28.667 7.43696 28.076 6.84596L26.509 5.27896C25.918 4.68796 25.116 4.35496 24.279 4.35496H7.72C6.884 4.35496 6.082 4.68696 5.49 5.27896L3.922 6.84696C3.331 7.43796 2.999 8.23996 2.999 9.07596V23.202C2.999 24.944 4.411 26.355 6.152 26.355H19.629V28.355H6.153C3.307 28.355 1 26.048 1 23.202V9.07596C1 7.70896 1.543 6.39796 2.51 5.43196L4.077 3.86496C5.044 2.89896 6.355 2.35596 7.722 2.35596H24.281C25.647 2.35596 26.957 2.89896 27.923 3.86496L29.49 5.43296C30.456 6.39896 30.999 7.70996 30.999 9.07696V23.203C30.999 26.049 28.692 28.356 25.846 28.356Z" fill="#441803"/>
<path d="M1.99902 6.35596H29.999V8.35596H1.99902V6.35596Z" fill="#441803"/>
<path d="M18.0517 29.7071C17.6617 29.3171 17.6607 28.6841 18.0517 28.2931L18.9797 27.3651L18.0517 26.4371C17.6617 26.0461 17.6617 25.4131 18.0517 25.0231C18.4427 24.6321 19.0757 24.6331 19.4657 25.0231L21.2807 26.8381C21.5717 27.1291 21.5717 27.6011 21.2807 27.8921L19.4657 29.7071C19.0757 30.0981 18.4417 30.0981 18.0517 29.7071Z" fill="#441803"/>
<path d="M8.08091 22.1649C6.62191 21.9059 5.62891 20.5249 5.62891 19.0429V15.7849C5.62891 13.9009 6.62391 12.5199 8.08491 12.2619C9.97791 11.9269 11.6289 13.3809 11.6289 15.2139V15.6509C11.6289 16.2029 11.1809 16.6509 10.6289 16.6509C10.0769 16.6509 9.62891 16.2029 9.62891 15.6509V15.2139C9.62891 14.6629 9.18091 14.2139 8.62891 14.2139C8.07691 14.2139 7.62891 14.6629 7.62891 15.2139V19.2139C7.62891 19.7649 8.07691 20.2139 8.62891 20.2139C9.18091 20.2139 9.62891 19.7649 9.62891 19.2139V18.9559C9.62891 18.4039 10.0769 17.9559 10.6289 17.9559C11.1809 17.9559 11.6289 18.4039 11.6289 18.9559V19.2139C11.6289 21.0479 9.97591 22.5019 8.08091 22.1649Z" fill="#441803"/>
<path d="M15.999 22.2129C14.345 22.2129 12.999 20.8669 12.999 19.2129V15.2129C12.999 13.5589 14.345 12.2129 15.999 12.2129C17.653 12.2129 18.999 13.5589 18.999 15.2129V19.2129C18.999 20.8669 17.653 22.2129 15.999 22.2129ZM15.999 14.2129C15.447 14.2129 14.999 14.6619 14.999 15.2129V19.2129C14.999 19.7639 15.447 20.2129 15.999 20.2129C16.551 20.2129 16.999 19.7639 16.999 19.2129V15.2129C16.999 14.6619 16.551 14.2129 15.999 14.2129Z" fill="#441803"/>
<path d="M22.9061 22.2129H22.6361C21.3851 22.2129 20.3711 21.1989 20.3711 19.9479V14.4769C20.3711 13.2269 21.3851 12.2129 22.6351 12.2129H22.9071C24.8201 12.2129 26.3711 13.7639 26.3711 15.6769V18.7479C26.3711 20.6619 24.8201 22.2129 22.9061 22.2129ZM22.9771 20.2129C23.7471 20.2129 24.3711 19.5889 24.3711 18.8189V15.6059C24.3711 14.8359 23.7471 14.2119 22.9771 14.2119C22.6421 14.2119 22.3711 14.4839 22.3711 14.8179V19.6049C22.3711 19.9399 22.6431 20.2109 22.9771 20.2109V20.2129Z" fill="#441803"/>
</svg>
