<svg width="54" height="40" viewBox="0 0 54 40" fill="none" xmlns="http://www.w3.org/2000/svg">
<g filter="url(#filter0_d_80_16619)">
<rect x="4" y="4" width="46" height="32" rx="6" fill="white" shape-rendering="crispEdges"/>
<rect x="4.5" y="4.5" width="45" height="31" rx="5.5" stroke="#F9F7F6" shape-rendering="crispEdges"/>
<path d="M32.7695 10.7065C37.7627 10.7065 41.8105 14.7064 41.8105 19.6401C41.8104 24.5738 37.7626 28.5728 32.7695 28.5728C30.5311 28.5727 28.4842 27.7675 26.9053 26.436C25.3264 27.7675 23.2795 28.5727 21.041 28.5728C16.0479 28.5728 12.0001 24.5738 12 19.6401C12 14.7064 16.0479 10.7065 21.041 10.7065C23.2794 10.7066 25.3264 11.5119 26.9053 12.8433C28.4841 11.5119 30.5312 10.7066 32.7695 10.7065Z" fill="#ED0006"/>
<path d="M32.7695 10.7065C37.7627 10.7065 41.8105 14.7064 41.8105 19.6401C41.8104 24.5738 37.7626 28.5728 32.7695 28.5728C30.5311 28.5727 28.4842 27.7675 26.9053 26.436C28.8482 24.7976 30.082 22.3619 30.082 19.6401C30.082 16.9181 28.8484 14.4818 26.9053 12.8433C28.4842 11.5119 30.5312 10.7066 32.7695 10.7065Z" fill="#F9A000"/>
<path d="M26.9043 12.8435C28.8475 14.482 30.0809 16.9175 30.0811 19.6394C30.0811 22.3613 28.8474 24.7968 26.9043 26.4353C24.9617 24.7968 23.7285 22.3609 23.7285 19.6394C23.7286 16.9179 24.9616 14.482 26.9043 12.8435Z" fill="#FF5E00"/>
</g>
<defs>
<filter id="filter0_d_80_16619" x="0" y="0" width="54" height="40" filterUnits="userSpaceOnUse" color-interpolation-filters="sRGB">
<feFlood flood-opacity="0" result="BackgroundImageFix"/>
<feColorMatrix in="SourceAlpha" type="matrix" values="0 0 0 0 0 0 0 0 0 0 0 0 0 0 0 0 0 0 127 0" result="hardAlpha"/>
<feOffset/>
<feGaussianBlur stdDeviation="2"/>
<feComposite in2="hardAlpha" operator="out"/>
<feColorMatrix type="matrix" values="0 0 0 0 0 0 0 0 0 0 0 0 0 0 0 0 0 0 0.02 0"/>
<feBlend mode="normal" in2="BackgroundImageFix" result="effect1_dropShadow_80_16619"/>
<feBlend mode="normal" in="SourceGraphic" in2="effect1_dropShadow_80_16619" result="shape"/>
</filter>
</defs>
</svg>
