<svg width="10" height="10" viewBox="0 0 10 10" fill="none" xmlns="http://www.w3.org/2000/svg">
<path d="M8.75 2.49178C7.3625 2.35428 5.96667 2.28345 4.575 2.28345C3.75 2.28345 2.925 2.32511 2.1 2.40845L1.25 2.49178" stroke="#441803" stroke-width="0.8" stroke-linecap="round" stroke-linejoin="round"/>
<path d="M3.54199 2.07075L3.63366 1.52492C3.70033 1.12909 3.75033 0.833252 4.45449 0.833252H5.54616C6.25033 0.833252 6.30449 1.14575 6.36699 1.52909L6.45866 2.07075" stroke="#441803" stroke-width="0.8" stroke-linecap="round" stroke-linejoin="round"/>
<path d="M7.85384 3.80835L7.58301 8.00418C7.53717 8.65835 7.49967 9.16668 6.33717 9.16668H3.66217C2.49967 9.16668 2.46217 8.65835 2.41634 8.00418L2.14551 3.80835" stroke="#441803" stroke-width="0.8" stroke-linecap="round" stroke-linejoin="round"/>
<path d="M4.30371 6.875H5.69121" stroke="#441803" stroke-width="0.8" stroke-linecap="round" stroke-linejoin="round"/>
<path d="M3.95801 5.20825H6.04134" stroke="#441803" stroke-width="0.8" stroke-linecap="round" stroke-linejoin="round"/>
</svg>
