<svg width="60" height="32" viewBox="0 0 60 32" fill="none" xmlns="http://www.w3.org/2000/svg">
<path fill-rule="evenodd" clip-rule="evenodd" d="M30.0543 0C34.0013 0 37.1973 2.63771 37.1973 5.91079C37.1973 9.18387 34.0013 11.167 30.0543 11.167C26.1652 11.09 23.4504 9.81923 21.9102 7.35479C22.7381 2.69547 25.4528 0.250294 30.0543 0ZM29.7848 3.6774C27.5129 3.90844 26.1266 4.98663 25.6068 6.91197C26.2999 7.52807 27.6862 7.85538 29.7848 7.93239C31.8834 7.89389 33.1349 7.27778 33.1734 5.87228C33.0386 4.29351 31.5176 3.61964 29.7848 3.6774Z" fill="#231F27"/>
<path fill-rule="evenodd" clip-rule="evenodd" d="M21.6215 8.91431C22.7767 12.2644 26.0112 14.132 29.3228 14.132C32.076 14.132 33.9051 12.9575 34.8485 11.1477L37.9291 13.073C36.8701 15.7108 33.6741 17.6168 29.9197 17.6168C25.2603 17.6168 21.2941 14.4978 21.6215 9.04908C21.6215 9.01057 21.6215 8.97207 21.6215 8.91431Z" fill="#31B454"/>
<path fill-rule="evenodd" clip-rule="evenodd" d="M21.8336 29.3807C22.9695 30.7862 24.0477 30.7669 24.9333 30.3819C25.7227 30.0161 26.1463 29.0726 26.0115 28.033C25.9923 28.033 25.9538 28.033 25.9538 28.0522C25.4339 29.3037 24.144 29.477 23.1235 29.2074C22.2186 28.9571 21.7565 28.3025 21.6218 27.4168C21.564 27.0895 21.5447 26.743 21.5447 26.4157C21.5255 25.0487 21.5447 23.7202 21.5447 22.334H23.162C23.162 22.4495 23.1813 22.5842 23.1813 22.719C23.1813 23.8165 23.1813 24.9139 23.1813 26.0113C23.1813 26.2424 23.2005 26.4927 23.239 26.7237C23.3546 27.5901 23.8937 27.9367 24.7793 27.7056C25.4917 27.5131 25.973 26.8585 26.0115 25.8958C26.05 24.8754 26.05 23.855 26.05 22.8345C26.05 22.6613 26.05 22.5072 26.05 22.3147H27.6288C27.6481 22.3725 27.6481 22.4302 27.6673 22.5072C27.6673 24.5096 27.7058 26.5119 27.6481 28.5143C27.5518 30.8825 25.5495 32.3265 23.2198 31.7874C22.4304 31.5948 21.7373 31.2868 21.1597 30.7092C21.0057 30.5166 20.9671 30.4011 21.1404 30.1893C21.3907 29.9583 21.5833 29.6695 21.8336 29.3807Z" fill="#231F27"/>
<path fill-rule="evenodd" clip-rule="evenodd" d="M12.1101 22.4111V23.4315C11.6095 22.6999 10.8779 22.2571 10.0885 22.2571C8.58671 22.2571 7.35449 23.8551 7.35449 25.8575C7.35449 27.8406 8.58671 29.4578 10.0885 29.4578C10.8779 29.4578 11.6095 28.9958 12.1101 28.2641V29.4578H13.7466V22.4111H12.1101ZM10.5506 27.9753C9.6649 27.9753 8.93327 27.0127 8.93327 25.8382C8.93327 24.6638 9.64565 23.7203 10.5506 23.7203C11.4362 23.7203 12.1678 24.6638 12.1678 25.8382C12.1678 27.0127 11.4362 27.9753 10.5506 27.9753Z" fill="#231F27"/>
<path fill-rule="evenodd" clip-rule="evenodd" d="M40.7214 22.4111V23.4315C40.2208 22.6999 39.4892 22.2571 38.6998 22.2571C37.198 22.2571 35.9658 23.8551 35.9658 25.8575C35.9658 27.8406 37.198 29.4578 38.6998 29.4578C39.4892 29.4578 40.2208 28.9958 40.7214 28.2641V29.4578H42.3579V22.4111H40.7214ZM39.1619 27.9753C38.2762 27.9753 37.5639 27.0127 37.5639 25.8382C37.5639 24.6638 38.2762 23.7203 39.1619 23.7203C40.0668 23.7203 40.7792 24.6638 40.7792 25.8382C40.7792 27.0127 40.0475 27.9753 39.1619 27.9753Z" fill="#231F27"/>
<path fill-rule="evenodd" clip-rule="evenodd" d="M57.8952 22.4111V23.4315C57.3946 22.6999 56.663 22.2571 55.8544 22.2571C54.3526 22.2571 53.1396 23.8551 53.1396 25.8575C53.1396 27.8406 54.3526 29.4578 55.8544 29.4578C56.663 29.4578 57.3754 28.9958 57.8952 28.2641V29.4578H59.5318V22.4111H57.8952ZM56.3357 27.9753C55.4501 27.9753 54.7184 27.0127 54.7184 25.8382C54.7184 24.6638 55.4501 23.7203 56.3357 23.7203C57.2406 23.7203 57.953 24.6638 57.953 25.8382C57.953 27.0127 57.2214 27.9753 56.3357 27.9753Z" fill="#231F27"/>
<path fill-rule="evenodd" clip-rule="evenodd" d="M43.5703 29.4578H45.2454V22.2571H43.5703V29.4578Z" fill="#231F27"/>
<path fill-rule="evenodd" clip-rule="evenodd" d="M45.4573 20.5243C45.4573 19.966 44.976 19.5039 44.4176 19.5039C43.84 19.5039 43.3779 19.966 43.3779 20.5243C43.3779 21.1019 43.84 21.564 44.4176 21.564C44.976 21.564 45.4573 21.1019 45.4573 20.5243Z" fill="#31B454"/>
<path fill-rule="evenodd" clip-rule="evenodd" d="M32.5764 22.3533C31.787 22.3533 31.0939 22.7769 30.574 23.4315V22.2571H28.9375V31.9993H30.574V28.3797C31.0939 29.0535 31.787 29.4578 32.5764 29.4578C34.1167 29.4578 35.3681 27.8791 35.3681 25.9152C35.3681 23.9514 34.1167 22.3533 32.5764 22.3533ZM32.1143 27.9753C31.4212 27.9753 30.8243 27.4362 30.574 26.6661V25.1643C30.8243 24.3942 31.4212 23.8551 32.1143 23.8551C33.0192 23.8551 33.7701 24.7793 33.7701 25.9152C33.7701 27.0512 33.0192 27.9753 32.1143 27.9753Z" fill="#231F27"/>
<path fill-rule="evenodd" clip-rule="evenodd" d="M19.4267 24.7986L20.6012 24.1825C20.5819 23.6434 20.2161 23.1428 19.754 22.854C19.3112 22.5652 18.7529 22.4496 18.1945 22.3919C17.3281 22.2956 16.3847 22.3726 15.6723 22.854C14.9407 23.3546 14.5171 24.375 14.9214 25.1644C15.268 25.7997 15.9996 26.1078 16.712 26.2233C17.4244 26.3581 18.1753 26.4158 18.8106 26.7432C18.9646 26.8202 19.1379 26.9357 19.1379 27.109C19.1572 27.3015 19.0224 27.4363 18.9069 27.5518C18.079 28.2449 16.8275 28.1294 16.1151 27.3015C15.9226 27.0512 15.7686 26.7817 15.7108 26.4736L14.4209 27.1475C14.1513 27.3015 15.1525 28.553 15.2873 28.6492C16.2499 29.4964 17.6939 29.6312 18.8684 29.2461C19.6963 28.9573 20.4857 28.3412 20.6589 27.4748C20.7552 26.9357 20.6012 26.3581 20.2354 25.9345C19.8311 25.5109 19.2342 25.2991 18.6566 25.1836C18.0597 25.0489 17.4821 25.0103 16.9045 24.8371C16.6542 24.7601 16.3847 24.606 16.3847 24.3365C16.4039 24.1054 16.6542 23.9514 16.8853 23.8744C17.3666 23.7204 17.8865 23.6626 18.3678 23.7974C18.8491 23.9322 19.292 24.3172 19.4267 24.7986Z" fill="#231F27"/>
<path fill-rule="evenodd" clip-rule="evenodd" d="M51.1367 24.7986L52.3112 24.1825C52.2919 23.6434 51.9261 23.1428 51.464 22.854C51.0019 22.5652 50.4628 22.4496 49.9045 22.3919C49.0381 22.2956 48.0947 22.3726 47.363 22.854C46.6507 23.3546 46.2271 24.375 46.6314 25.1644C46.978 25.7997 47.7096 26.1078 48.422 26.2233C49.1343 26.3581 49.8852 26.4158 50.5206 26.7432C50.6746 26.8202 50.8479 26.9357 50.8479 27.109C50.8671 27.3015 50.7324 27.4363 50.6169 27.5518C49.7697 28.2449 48.5182 28.1294 47.8251 27.3015C47.6326 27.0512 47.4786 26.7817 47.4208 26.4736L46.1116 27.1475C45.842 27.3015 46.8624 28.553 46.978 28.6492C47.9406 29.4964 49.4039 29.6312 50.5783 29.2461C51.4062 28.9573 52.1956 28.3412 52.3689 27.4748C52.4652 26.9357 52.3112 26.3581 51.9261 25.9345C51.5218 25.5109 50.9249 25.2991 50.3473 25.1836C49.7505 25.0489 49.1728 25.0296 48.6145 24.8563C48.3642 24.7793 48.0947 24.606 48.0947 24.3557C48.1139 24.1054 48.3642 23.9707 48.5952 23.8937C49.0766 23.7396 49.5964 23.6626 50.0778 23.7974C50.5591 23.9514 51.0019 24.3172 51.1367 24.7986Z" fill="#231F27"/>
<path fill-rule="evenodd" clip-rule="evenodd" d="M5.9493 23.4699C5.9493 23.4699 4.73633 21.6023 2.07937 22.5457C2.07937 22.5457 0.654615 22.9308 0 25.2219C0 25.2219 1.32848 27.3398 4.56305 26.6659C4.56305 26.6659 7.31629 25.9343 5.9493 23.4699ZM4.21649 25.3375C3.6774 25.5877 2.86875 25.53 2.29115 25.376C2.25265 25.3567 1.52102 25.1064 1.55952 25.0294C2.09862 24.0475 3.50412 23.1233 4.48604 24.1437C4.58231 24.24 4.65932 24.3748 4.69783 24.4903C4.77484 24.8561 4.52455 25.2027 4.21649 25.3375Z" fill="#231F27"/>
<path fill-rule="evenodd" clip-rule="evenodd" d="M0.0196552 25.9153C0.0196552 25.9153 -0.307652 28.4182 2.02201 29.2461C4.35167 30.0548 6.18074 28.553 6.71983 27.6288L5.39135 26.8394C5.39135 26.8394 4.35167 28.9766 1.38665 27.5903C1.38665 27.5903 0.289203 26.955 0.0196552 25.9153Z" fill="#31B454"/>
</svg>
