<svg width="66" height="65" viewBox="0 0 66 65" fill="none" xmlns="http://www.w3.org/2000/svg">
<g filter="url(#filter0_d_56_8993)">
<rect width="60" height="60" rx="12.8571" fill="white" shape-rendering="crispEdges"/>
<rect x="0.535714" y="0.535714" width="58.9286" height="58.9286" rx="12.3214" stroke="#441803" stroke-width="1.07143" shape-rendering="crispEdges"/>
<g clip-path="url(#clip0_56_8993)">
<path d="M42.8324 24.7031C42.7722 23.3368 42.5513 22.3975 42.2347 21.5836C41.9082 20.7196 41.4059 19.9461 40.7478 19.3031C40.1047 18.6501 39.3261 18.1426 38.4722 17.8212C37.6535 17.5047 36.7191 17.2838 35.3528 17.2235C33.9763 17.1582 33.5393 17.1431 30.0481 17.1431C26.5569 17.1431 26.1199 17.1582 24.7485 17.2184C23.3822 17.2787 22.4429 17.4998 21.6292 17.8161C20.765 18.1426 19.9915 18.645 19.3485 19.3031C18.6955 19.9461 18.1882 20.7247 17.8666 21.5787C17.5501 22.3975 17.3292 23.3317 17.2689 24.698C17.2036 26.0745 17.1885 26.5115 17.1885 30.0027C17.1885 33.4939 17.2036 33.9309 17.2638 35.3023C17.3241 36.6686 17.5452 37.6079 17.8617 38.4219C18.1882 39.2858 18.6955 40.0593 19.3485 40.7024C19.9915 41.3554 20.7701 41.8628 21.6241 42.1842C22.4429 42.5007 23.3771 42.7217 24.7436 42.7819C26.1148 42.8424 26.552 42.8573 30.0432 42.8573C33.5344 42.8573 33.9714 42.8424 35.3428 42.7819C36.7091 42.7217 37.6484 42.5007 38.4622 42.1842C40.1903 41.5161 41.5566 40.1498 42.2247 38.4219C42.541 37.603 42.7622 36.6686 42.8224 35.3023C42.8827 33.9309 42.8978 33.4939 42.8978 30.0027C42.8978 26.5115 42.8927 26.0745 42.8324 24.7031ZM40.5168 35.2018C40.4615 36.4577 40.2505 37.1358 40.0747 37.5879C39.6426 38.7081 38.7536 39.5972 37.6333 40.0293C37.1812 40.2051 36.4982 40.4161 35.2472 40.4712C33.891 40.5316 33.4842 40.5466 30.0532 40.5466C26.6223 40.5466 26.2104 40.5316 24.859 40.4712C23.6032 40.4161 22.925 40.2051 22.473 40.0293C21.9155 39.8233 21.4081 39.4968 20.9962 39.0698C20.5692 38.6528 20.2427 38.1505 20.0366 37.593C19.8608 37.1409 19.6499 36.4577 19.5948 35.2069C19.5343 33.8507 19.5194 33.4437 19.5194 30.0127C19.5194 26.5818 19.5343 26.1699 19.5948 24.8187C19.6499 23.5629 19.8608 22.8847 20.0366 22.4326C20.2427 21.875 20.5692 21.3677 21.0013 20.9557C21.4181 20.5287 21.9204 20.2022 22.4781 19.9963C22.9302 19.8205 23.6134 19.6096 24.8641 19.5543C26.2204 19.494 26.6274 19.4789 30.0581 19.4789C33.4942 19.4789 33.901 19.494 35.2524 19.5543C36.5082 19.6096 37.1863 19.8205 37.6384 19.9963C38.1959 20.2022 38.7033 20.5287 39.1152 20.9557C39.5422 21.3726 39.8687 21.875 40.0747 22.4326C40.2505 22.8847 40.4615 23.5678 40.5168 24.8187C40.5771 26.175 40.5922 26.5818 40.5922 30.0127C40.5922 33.4437 40.5771 33.8455 40.5168 35.2018Z" fill="#441803"/>
<path d="M30.048 23.3975C26.4012 23.3975 23.4424 26.3561 23.4424 30.0031C23.4424 33.6501 26.4012 36.6087 30.048 36.6087C33.695 36.6087 36.6537 33.6501 36.6537 30.0031C36.6537 26.3561 33.695 23.3975 30.048 23.3975ZM30.048 34.288C27.6822 34.288 25.7631 32.3692 25.7631 30.0031C25.7631 27.6371 27.6822 25.7182 30.048 25.7182C32.4141 25.7182 34.3329 27.6371 34.3329 30.0031C34.3329 32.3692 32.4141 34.288 30.048 34.288Z" fill="#441803"/>
<path d="M38.4565 23.1359C38.4565 23.9875 37.766 24.678 36.9142 24.678C36.0626 24.678 35.3721 23.9875 35.3721 23.1359C35.3721 22.2841 36.0626 21.5938 36.9142 21.5938C37.766 21.5938 38.4565 22.2841 38.4565 23.1359Z" fill="#441803"/>
</g>
</g>
<defs>
<filter id="filter0_d_56_8993" x="0" y="0" width="65.3571" height="64.2857" filterUnits="userSpaceOnUse" color-interpolation-filters="sRGB">
<feFlood flood-opacity="0" result="BackgroundImageFix"/>
<feColorMatrix in="SourceAlpha" type="matrix" values="0 0 0 0 0 0 0 0 0 0 0 0 0 0 0 0 0 0 127 0" result="hardAlpha"/>
<feOffset dx="5.35714" dy="4.28571"/>
<feComposite in2="hardAlpha" operator="out"/>
<feColorMatrix type="matrix" values="0 0 0 0 0.266667 0 0 0 0 0.0941176 0 0 0 0 0.0117647 0 0 0 1 0"/>
<feBlend mode="normal" in2="BackgroundImageFix" result="effect1_dropShadow_56_8993"/>
<feBlend mode="normal" in="SourceGraphic" in2="effect1_dropShadow_56_8993" result="shape"/>
</filter>
<clipPath id="clip0_56_8993">
<rect width="25.7143" height="25.7143" fill="white" transform="translate(17.1431 17.1431)"/>
</clipPath>
</defs>
</svg>
